<?xml version="1.0" encoding="utf-8"?>
<!-- Generator: Adobe Illustrator 26.0.2, SVG Export Plug-In . SVG Version: 6.00 Build 0)  -->
<!DOCTYPE svg PUBLIC "-//W3C//DTD SVG 1.1//EN" "http://www.w3.org/Graphics/SVG/1.1/DTD/svg11.dtd" [
	<!ENTITY ns_extend "http://ns.adobe.com/Extensibility/1.0/">
	<!ENTITY ns_ai "http://ns.adobe.com/AdobeIllustrator/10.0/">
	<!ENTITY ns_graphs "http://ns.adobe.com/Graphs/1.0/">
	<!ENTITY ns_vars "http://ns.adobe.com/Variables/1.0/">
	<!ENTITY ns_imrep "http://ns.adobe.com/ImageReplacement/1.0/">
	<!ENTITY ns_sfw "http://ns.adobe.com/SaveForWeb/1.0/">
	<!ENTITY ns_custom "http://ns.adobe.com/GenericCustomNamespace/1.0/">
	<!ENTITY ns_adobe_xpath "http://ns.adobe.com/XPath/1.0/">
]>
<svg version="1.1" id="Layer_1" xmlns:x="&ns_extend;" xmlns:i="&ns_ai;" xmlns:graph="&ns_graphs;"
	 xmlns="http://www.w3.org/2000/svg" xmlns:xlink="http://www.w3.org/1999/xlink" x="0px" y="0px" viewBox="0 0 220 220"
	 style="enable-background:new 0 0 220 220;" xml:space="preserve">
<style type="text/css">
	.st0{fill:#002144;}
	.st1{fill:#031F33;}
	.st2{fill:#FFCC00;}
	.st3{fill:#FFB600;}
</style>
<metadata>
	<sfw  xmlns="&ns_sfw;">
		<slices></slices>
		<sliceSourceBounds  bottomLeftOrigin="true" height="211.2" width="211.2" x="4.4" y="4.4"></sliceSourceBounds>
	</sfw>
</metadata>
<g>
	<circle class="st0" cx="110" cy="110" r="105.6"/>
	<path class="st1" d="M153.8,205.8c36.4-16.7,61.7-53.4,61.7-96.1c0-14.5-2.9-28.4-8.3-41l-96.2-35.3l-29.2,71.4L63.3,98l-16.8,11.4
		l29.1,10.8l-1.1,2.6l-18.6-6.9l-16.8,11.4l29.1,10.8l-12.9,31.6L153.8,205.8z"/>
	<path class="st2" d="M179.4,80.5l-45.2,7.2l-19.7-51.9c-1.2-3-5.4-3-6.7,0L85,95.5c-19,2.9-32.8,5-33.7,5.1c-0.6,0.1-0.9,0.4-1,0.4
		c-0.3,0.3-0.5,0.6-0.7,0.9l-4.1,9.7c-0.6,1.5,0.6,3.2,2.3,2.9l31.1-4.7l-1.4,3.3L44,118.3c-0.7,0.1-1.4,0.6-1.6,1.3l-4.1,9.7
		c-0.6,1.5,0.6,3.2,2.3,2.9l31.1-4.7l-17.8,37.9c-1,2.4,0.8,5,3.3,5h17.4c1.7,0,3.3-1,4-2.7l8.8-21.2l22.1-52.9
		c0.6-1.5,2.8-1.5,3.4,0l21.1,50.3c0.5,1.2-0.4,2.6-1.7,2.6h-29.1c-1.7,0-3.3,1-4,2.7l-6.3,15.2c-1.2,2.8,0.9,5.9,4,5.9h68.3
		c2.6,0,4.3-2.6,3.3-5l-22.5-49.5l22.8-3.8c0.7-0.1,1.3-0.6,1.6-1.3l4.1-9.7c0.6-1.5-0.7-3.2-2.3-2.9l-31.4,5.1l-1.2-2.9l36.6-5.9
		c0.7-0.1,1.3-0.6,1.6-1.3l4.1-9.7C182.4,81.9,181.1,80.3,179.4,80.5z"/>
	<path class="st3" d="M179.4,80.6l-45.2,7.2L114.5,36c-0.6-1.5-2-2.2-3.4-2.2c0,19.6,0,39.2,0,58.8c0.7,0,1.4,0.4,1.7,1.1l21.1,50.3
		c0.5,1.2-0.4,2.6-1.7,2.6h-29.1c-1.7,0-3.3,1-4,2.7l-6.3,15.2c-1.2,2.8,0.9,5.9,4,5.9h68.3c2.6,0,4.3-2.6,3.3-5L145.9,116l22.8-3.8
		c0.7-0.1,1.3-0.6,1.6-1.3l4.1-9.7c0.6-1.5-0.7-3.2-2.3-2.9l-31.4,5.1l-1.2-2.9l36.6-5.9c0.7-0.1,1.3-0.6,1.6-1.3l4.1-9.7
		C182.4,82,181.1,80.4,179.4,80.6z"/>
</g>
</svg>
